<mxfile host="65bd71144e">
    <diagram id="Q6rbvhHQXRr2ytZv1ONJ" name="Page-1">
        <mxGraphModel dx="3077" dy="4764" grid="1" gridSize="10" guides="1" tooltips="1" connect="1" arrows="1" fold="1" page="1" pageScale="1" pageWidth="850" pageHeight="1100" math="0" shadow="0">
            <root>
                <mxCell id="0"/>
                <mxCell id="1" parent="0"/>
                <mxCell id="qgahOEUiVm1OIHHilqF--64" style="edgeStyle=none;html=1;exitX=0.5;exitY=1;exitDx=0;exitDy=0;entryX=0.5;entryY=0;entryDx=0;entryDy=0;" parent="1" source="9" target="qgahOEUiVm1OIHHilqF--63" edge="1">
                    <mxGeometry relative="1" as="geometry"/>
                </mxCell>
                <mxCell id="9" value="&lt;font style=&quot;font-size: 15px;&quot;&gt;แสดงรายการของตู้ตะพาบลอย&lt;/font&gt;" style="rounded=0;whiteSpace=wrap;html=1;" parent="1" vertex="1">
                    <mxGeometry x="785" y="-1310" width="120" height="40" as="geometry"/>
                </mxCell>
                <mxCell id="qgahOEUiVm1OIHHilqF--83" style="edgeStyle=none;html=1;exitX=1;exitY=0.5;exitDx=0;exitDy=0;entryX=0.5;entryY=0;entryDx=0;entryDy=0;" parent="1" source="11" target="25" edge="1">
                    <mxGeometry relative="1" as="geometry">
                        <Array as="points">
                            <mxPoint x="1255" y="-1100"/>
                        </Array>
                    </mxGeometry>
                </mxCell>
                <mxCell id="qgahOEUiVm1OIHHilqF--122" style="edgeStyle=none;html=1;exitX=0;exitY=0.5;exitDx=0;exitDy=0;entryX=0.5;entryY=0;entryDx=0;entryDy=0;" parent="1" source="11" target="24" edge="1">
                    <mxGeometry relative="1" as="geometry">
                        <Array as="points">
                            <mxPoint x="490" y="-1100"/>
                        </Array>
                    </mxGeometry>
                </mxCell>
                <mxCell id="11" value="ลูกค้าเลือกสินค้าที่ประเภทน้ำ" style="rhombus;whiteSpace=wrap;html=1;" parent="1" vertex="1">
                    <mxGeometry x="760" y="-1140" width="170" height="80" as="geometry"/>
                </mxCell>
                <mxCell id="22" value="&lt;font style=&quot;font-size: 17px;&quot;&gt;จริง&lt;/font&gt;" style="text;html=1;align=center;verticalAlign=middle;whiteSpace=wrap;rounded=0;" parent="1" vertex="1">
                    <mxGeometry x="600" y="-1130" width="60" height="30" as="geometry"/>
                </mxCell>
                <mxCell id="23" value="&lt;font style=&quot;font-size: 17px;&quot;&gt;เท็จ&lt;/font&gt;" style="text;html=1;align=center;verticalAlign=middle;whiteSpace=wrap;rounded=0;" parent="1" vertex="1">
                    <mxGeometry x="1090" y="-1130" width="60" height="30" as="geometry"/>
                </mxCell>
                <mxCell id="qgahOEUiVm1OIHHilqF--68" style="edgeStyle=none;html=1;exitX=1;exitY=0.5;exitDx=0;exitDy=0;entryX=0.5;entryY=0;entryDx=0;entryDy=0;" parent="1" source="24" target="30" edge="1">
                    <mxGeometry relative="1" as="geometry">
                        <Array as="points">
                            <mxPoint x="330" y="-1000"/>
                        </Array>
                    </mxGeometry>
                </mxCell>
                <mxCell id="qgahOEUiVm1OIHHilqF--123" style="edgeStyle=none;html=1;exitX=1;exitY=0.5;exitDx=0;exitDy=0;entryX=0.5;entryY=0;entryDx=0;entryDy=0;" parent="1" source="24" target="29" edge="1">
                    <mxGeometry relative="1" as="geometry">
                        <Array as="points">
                            <mxPoint x="625" y="-1000"/>
                        </Array>
                    </mxGeometry>
                </mxCell>
                <mxCell id="24" value="&lt;font style=&quot;font-size: 15px;&quot;&gt;โค้กกระป๋องละ10บาท&lt;/font&gt;" style="rhombus;whiteSpace=wrap;html=1;" parent="1" vertex="1">
                    <mxGeometry x="410" y="-1040" width="160" height="80" as="geometry"/>
                </mxCell>
                <mxCell id="qgahOEUiVm1OIHHilqF--94" style="edgeStyle=none;html=1;exitX=0;exitY=0.5;exitDx=0;exitDy=0;entryX=0.5;entryY=0;entryDx=0;entryDy=0;" parent="1" source="25" target="qgahOEUiVm1OIHHilqF--90" edge="1">
                    <mxGeometry relative="1" as="geometry">
                        <Array as="points">
                            <mxPoint x="1030" y="-1000"/>
                        </Array>
                    </mxGeometry>
                </mxCell>
                <mxCell id="qgahOEUiVm1OIHHilqF--98" style="edgeStyle=none;html=1;exitX=1;exitY=0.5;exitDx=0;exitDy=0;entryX=0.5;entryY=0;entryDx=0;entryDy=0;" parent="1" source="25" target="qgahOEUiVm1OIHHilqF--85" edge="1">
                    <mxGeometry relative="1" as="geometry">
                        <Array as="points">
                            <mxPoint x="1410" y="-1000"/>
                        </Array>
                    </mxGeometry>
                </mxCell>
                <mxCell id="25" value="&lt;font style=&quot;font-size: 15px;&quot;&gt;เม็ดทานตะวัน&lt;/font&gt;&lt;div&gt;&lt;font style=&quot;font-size: 15px;&quot;&gt;13บาท&lt;/font&gt;&lt;/div&gt;" style="rhombus;whiteSpace=wrap;html=1;" parent="1" vertex="1">
                    <mxGeometry x="1175" y="-1040" width="160" height="80" as="geometry"/>
                </mxCell>
                <mxCell id="qgahOEUiVm1OIHHilqF--164" style="edgeStyle=none;html=1;exitX=1;exitY=0.5;exitDx=0;exitDy=0;entryX=0.5;entryY=0;entryDx=0;entryDy=0;" parent="1" source="29" target="qgahOEUiVm1OIHHilqF--118" edge="1">
                    <mxGeometry relative="1" as="geometry">
                        <Array as="points">
                            <mxPoint x="850" y="-940"/>
                        </Array>
                    </mxGeometry>
                </mxCell>
                <mxCell id="29" value="เอา" style="rounded=0;whiteSpace=wrap;html=1;" parent="1" vertex="1">
                    <mxGeometry x="570" y="-960" width="110" height="40" as="geometry"/>
                </mxCell>
                <mxCell id="qgahOEUiVm1OIHHilqF--126" style="edgeStyle=none;html=1;exitX=1;exitY=0.5;exitDx=0;exitDy=0;entryX=0.5;entryY=0;entryDx=0;entryDy=0;" parent="1" source="30" target="36" edge="1">
                    <mxGeometry relative="1" as="geometry">
                        <Array as="points">
                            <mxPoint x="465" y="-920"/>
                        </Array>
                    </mxGeometry>
                </mxCell>
                <mxCell id="qgahOEUiVm1OIHHilqF--127" style="edgeStyle=none;html=1;exitX=0;exitY=0.5;exitDx=0;exitDy=0;entryX=0.5;entryY=0;entryDx=0;entryDy=0;" parent="1" source="30" target="qgahOEUiVm1OIHHilqF--40" edge="1">
                    <mxGeometry relative="1" as="geometry">
                        <Array as="points">
                            <mxPoint x="167" y="-920"/>
                        </Array>
                    </mxGeometry>
                </mxCell>
                <mxCell id="30" value="&lt;font style=&quot;font-size: 15px;&quot;&gt;น้ำเขียวกระป๋อง&lt;/font&gt;&lt;div&gt;&lt;font style=&quot;font-size: 15px;&quot;&gt;12บาท&lt;/font&gt;&lt;/div&gt;" style="rhombus;whiteSpace=wrap;html=1;" parent="1" vertex="1">
                    <mxGeometry x="250" y="-960" width="160" height="80" as="geometry"/>
                </mxCell>
                <mxCell id="34" value="เท็จ" style="text;html=1;align=center;verticalAlign=middle;whiteSpace=wrap;rounded=0;" parent="1" vertex="1">
                    <mxGeometry x="340" y="-1030" width="60" height="30" as="geometry"/>
                </mxCell>
                <mxCell id="qgahOEUiVm1OIHHilqF--166" style="edgeStyle=none;html=1;exitX=1;exitY=0.5;exitDx=0;exitDy=0;entryX=0.5;entryY=0;entryDx=0;entryDy=0;" parent="1" source="36" target="qgahOEUiVm1OIHHilqF--118" edge="1">
                    <mxGeometry relative="1" as="geometry">
                        <Array as="points">
                            <mxPoint x="850" y="-860"/>
                        </Array>
                    </mxGeometry>
                </mxCell>
                <mxCell id="36" value="เอา" style="rounded=0;whiteSpace=wrap;html=1;" parent="1" vertex="1">
                    <mxGeometry x="410" y="-882.5" width="110" height="40" as="geometry"/>
                </mxCell>
                <mxCell id="qgahOEUiVm1OIHHilqF--39" value="จริง" style="text;html=1;align=center;verticalAlign=middle;whiteSpace=wrap;rounded=0;" parent="1" vertex="1">
                    <mxGeometry x="410" y="-950" width="60" height="30" as="geometry"/>
                </mxCell>
                <mxCell id="qgahOEUiVm1OIHHilqF--129" style="edgeStyle=none;html=1;exitX=1;exitY=0.5;exitDx=0;exitDy=0;entryX=0.5;entryY=0;entryDx=0;entryDy=0;" parent="1" source="qgahOEUiVm1OIHHilqF--40" target="qgahOEUiVm1OIHHilqF--49" edge="1">
                    <mxGeometry relative="1" as="geometry">
                        <Array as="points">
                            <mxPoint x="307" y="-837"/>
                        </Array>
                    </mxGeometry>
                </mxCell>
                <mxCell id="qgahOEUiVm1OIHHilqF--132" style="edgeStyle=none;html=1;exitX=0;exitY=0.5;exitDx=0;exitDy=0;entryX=0.5;entryY=0;entryDx=0;entryDy=0;" parent="1" source="qgahOEUiVm1OIHHilqF--40" target="qgahOEUiVm1OIHHilqF--55" edge="1">
                    <mxGeometry relative="1" as="geometry">
                        <Array as="points">
                            <mxPoint x="13" y="-837"/>
                        </Array>
                    </mxGeometry>
                </mxCell>
                <mxCell id="qgahOEUiVm1OIHHilqF--40" value="&lt;font style=&quot;font-size: 15px;&quot;&gt;อเมริกันโน่&lt;/font&gt;&lt;div&gt;&lt;font style=&quot;font-size: 15px;&quot;&gt;30 บาท&lt;/font&gt;&lt;/div&gt;" style="rhombus;whiteSpace=wrap;html=1;" parent="1" vertex="1">
                    <mxGeometry x="85" y="-877.5" width="165" height="80" as="geometry"/>
                </mxCell>
                <mxCell id="qgahOEUiVm1OIHHilqF--48" value="เท็จ" style="text;html=1;align=center;verticalAlign=middle;whiteSpace=wrap;rounded=0;" parent="1" vertex="1">
                    <mxGeometry x="-130" y="-790" width="60" height="30" as="geometry"/>
                </mxCell>
                <mxCell id="qgahOEUiVm1OIHHilqF--176" style="edgeStyle=none;html=1;exitX=1;exitY=0.5;exitDx=0;exitDy=0;entryX=0.5;entryY=0;entryDx=0;entryDy=0;" parent="1" source="qgahOEUiVm1OIHHilqF--49" target="qgahOEUiVm1OIHHilqF--118" edge="1">
                    <mxGeometry relative="1" as="geometry">
                        <Array as="points">
                            <mxPoint x="850" y="-780"/>
                        </Array>
                    </mxGeometry>
                </mxCell>
                <mxCell id="qgahOEUiVm1OIHHilqF--49" value="เอา" style="rounded=0;whiteSpace=wrap;html=1;" parent="1" vertex="1">
                    <mxGeometry x="250" y="-800" width="115" height="40" as="geometry"/>
                </mxCell>
                <mxCell id="qgahOEUiVm1OIHHilqF--51" value="จริง" style="text;html=1;align=center;verticalAlign=middle;whiteSpace=wrap;rounded=0;" parent="1" vertex="1">
                    <mxGeometry x="560" y="-1030" width="60" height="30" as="geometry"/>
                </mxCell>
                <mxCell id="qgahOEUiVm1OIHHilqF--133" style="edgeStyle=none;html=1;exitX=1;exitY=0.5;exitDx=0;exitDy=0;entryX=0.5;entryY=0;entryDx=0;entryDy=0;" parent="1" source="qgahOEUiVm1OIHHilqF--55" target="qgahOEUiVm1OIHHilqF--61" edge="1">
                    <mxGeometry relative="1" as="geometry">
                        <Array as="points">
                            <mxPoint x="145" y="-758"/>
                        </Array>
                    </mxGeometry>
                </mxCell>
                <mxCell id="qgahOEUiVm1OIHHilqF--134" style="edgeStyle=none;html=1;exitX=0;exitY=0.5;exitDx=0;exitDy=0;entryX=0.5;entryY=0;entryDx=0;entryDy=0;" parent="1" source="qgahOEUiVm1OIHHilqF--55" target="qgahOEUiVm1OIHHilqF--57" edge="1">
                    <mxGeometry relative="1" as="geometry">
                        <Array as="points">
                            <mxPoint x="-130" y="-760"/>
                        </Array>
                    </mxGeometry>
                </mxCell>
                <mxCell id="qgahOEUiVm1OIHHilqF--55" value="&lt;font style=&quot;font-size: 15px;&quot;&gt;ลาเต้หวานเจี๊ยบ&lt;/font&gt;&lt;div&gt;&lt;font style=&quot;font-size: 15px;&quot;&gt;35 บาท&lt;/font&gt;&lt;/div&gt;" style="rhombus;whiteSpace=wrap;html=1;" parent="1" vertex="1">
                    <mxGeometry x="-70" y="-797.5" width="165" height="80" as="geometry"/>
                </mxCell>
                <mxCell id="qgahOEUiVm1OIHHilqF--136" style="edgeStyle=none;html=1;exitX=0.5;exitY=1;exitDx=0;exitDy=0;entryX=0;entryY=0.5;entryDx=0;entryDy=0;" parent="1" source="qgahOEUiVm1OIHHilqF--57" target="qgahOEUiVm1OIHHilqF--63" edge="1">
                    <mxGeometry relative="1" as="geometry">
                        <Array as="points">
                            <mxPoint x="-130" y="-640"/>
                            <mxPoint x="-230" y="-640"/>
                            <mxPoint x="-230" y="-1187"/>
                        </Array>
                    </mxGeometry>
                </mxCell>
                <mxCell id="qgahOEUiVm1OIHHilqF--57" value="ไม่เอา" style="rounded=0;whiteSpace=wrap;html=1;" parent="1" vertex="1">
                    <mxGeometry x="-190" y="-720" width="120" height="40" as="geometry"/>
                </mxCell>
                <mxCell id="qgahOEUiVm1OIHHilqF--59" value="เท็จ" style="text;html=1;align=center;verticalAlign=middle;whiteSpace=wrap;rounded=0;" parent="1" vertex="1">
                    <mxGeometry x="180" y="-950" width="60" height="30" as="geometry"/>
                </mxCell>
                <mxCell id="qgahOEUiVm1OIHHilqF--60" value="&lt;font style=&quot;font-size: 15px;&quot;&gt;จริง&lt;/font&gt;" style="text;html=1;align=center;verticalAlign=middle;whiteSpace=wrap;rounded=0;" parent="1" vertex="1">
                    <mxGeometry x="250" y="-860" width="60" height="30" as="geometry"/>
                </mxCell>
                <mxCell id="qgahOEUiVm1OIHHilqF--179" style="edgeStyle=none;html=1;exitX=1;exitY=0.5;exitDx=0;exitDy=0;entryX=0.5;entryY=0;entryDx=0;entryDy=0;" parent="1" source="qgahOEUiVm1OIHHilqF--61" target="qgahOEUiVm1OIHHilqF--118" edge="1">
                    <mxGeometry relative="1" as="geometry">
                        <Array as="points">
                            <mxPoint x="850" y="-700"/>
                            <mxPoint x="850" y="-690"/>
                        </Array>
                    </mxGeometry>
                </mxCell>
                <mxCell id="qgahOEUiVm1OIHHilqF--61" value="เอา" style="rounded=0;whiteSpace=wrap;html=1;" parent="1" vertex="1">
                    <mxGeometry x="85" y="-717.5" width="120" height="40" as="geometry"/>
                </mxCell>
                <mxCell id="qgahOEUiVm1OIHHilqF--65" style="edgeStyle=none;html=1;exitX=0.5;exitY=1;exitDx=0;exitDy=0;entryX=0.5;entryY=0;entryDx=0;entryDy=0;" parent="1" source="qgahOEUiVm1OIHHilqF--63" target="11" edge="1">
                    <mxGeometry relative="1" as="geometry"/>
                </mxCell>
                <mxCell id="qgahOEUiVm1OIHHilqF--63" value="" style="ellipse;whiteSpace=wrap;html=1;aspect=fixed;" parent="1" vertex="1">
                    <mxGeometry x="832.5" y="-1200" width="25" height="25" as="geometry"/>
                </mxCell>
                <mxCell id="qgahOEUiVm1OIHHilqF--74" value="จริง" style="text;html=1;align=center;verticalAlign=middle;whiteSpace=wrap;rounded=0;" parent="1" vertex="1">
                    <mxGeometry x="85" y="-790" width="60" height="30" as="geometry"/>
                </mxCell>
                <mxCell id="qgahOEUiVm1OIHHilqF--76" value="เท็จ" style="text;html=1;align=center;verticalAlign=middle;whiteSpace=wrap;rounded=0;" parent="1" vertex="1">
                    <mxGeometry x="10" y="-870" width="60" height="30" as="geometry"/>
                </mxCell>
                <mxCell id="qgahOEUiVm1OIHHilqF--170" style="edgeStyle=none;html=1;exitX=0;exitY=0.5;exitDx=0;exitDy=0;entryX=0.5;entryY=0;entryDx=0;entryDy=0;" parent="1" source="qgahOEUiVm1OIHHilqF--85" target="qgahOEUiVm1OIHHilqF--91" edge="1">
                    <mxGeometry relative="1" as="geometry">
                        <Array as="points">
                            <mxPoint x="1200" y="-917"/>
                        </Array>
                    </mxGeometry>
                </mxCell>
                <mxCell id="qgahOEUiVm1OIHHilqF--171" style="edgeStyle=none;html=1;exitX=1;exitY=0.5;exitDx=0;exitDy=0;entryX=0.5;entryY=0;entryDx=0;entryDy=0;" parent="1" source="qgahOEUiVm1OIHHilqF--85" target="qgahOEUiVm1OIHHilqF--88" edge="1">
                    <mxGeometry relative="1" as="geometry">
                        <Array as="points">
                            <mxPoint x="1570" y="-917"/>
                        </Array>
                    </mxGeometry>
                </mxCell>
                <mxCell id="qgahOEUiVm1OIHHilqF--85" value="&lt;font style=&quot;font-size: 15px;&quot;&gt;ถั่วแปป&lt;/font&gt;&lt;div&gt;&lt;span style=&quot;font-size: 15px;&quot;&gt;20 บาท&lt;/span&gt;&lt;/div&gt;" style="rhombus;whiteSpace=wrap;html=1;" parent="1" vertex="1">
                    <mxGeometry x="1320" y="-957.5" width="180" height="80" as="geometry"/>
                </mxCell>
                <mxCell id="qgahOEUiVm1OIHHilqF--175" style="edgeStyle=none;html=1;exitX=1;exitY=0.5;exitDx=0;exitDy=0;entryX=0.5;entryY=0;entryDx=0;entryDy=0;" parent="1" source="qgahOEUiVm1OIHHilqF--88" target="qgahOEUiVm1OIHHilqF--93" edge="1">
                    <mxGeometry relative="1" as="geometry">
                        <Array as="points">
                            <mxPoint x="1710" y="-837"/>
                        </Array>
                    </mxGeometry>
                </mxCell>
                <mxCell id="44" style="edgeStyle=none;html=1;exitX=0;exitY=0.5;exitDx=0;exitDy=0;entryX=0.5;entryY=0;entryDx=0;entryDy=0;" edge="1" parent="1" source="qgahOEUiVm1OIHHilqF--88" target="qgahOEUiVm1OIHHilqF--92">
                    <mxGeometry relative="1" as="geometry">
                        <mxPoint x="1410" y="-840" as="targetPoint"/>
                        <Array as="points">
                            <mxPoint x="1395" y="-840"/>
                        </Array>
                    </mxGeometry>
                </mxCell>
                <mxCell id="qgahOEUiVm1OIHHilqF--88" value="&lt;font style=&quot;font-size: 15px;&quot;&gt;จิ้นส้มหมก&lt;/font&gt;&lt;div&gt;&lt;font style=&quot;font-size: 15px;&quot;&gt;15บาท&lt;/font&gt;&lt;/div&gt;" style="rhombus;whiteSpace=wrap;html=1;" parent="1" vertex="1">
                    <mxGeometry x="1480" y="-877.5" width="180" height="80" as="geometry"/>
                </mxCell>
                <mxCell id="qgahOEUiVm1OIHHilqF--165" style="edgeStyle=none;html=1;exitX=0;exitY=0.5;exitDx=0;exitDy=0;entryX=0.5;entryY=0;entryDx=0;entryDy=0;" parent="1" source="qgahOEUiVm1OIHHilqF--90" target="qgahOEUiVm1OIHHilqF--118" edge="1">
                    <mxGeometry relative="1" as="geometry">
                        <Array as="points">
                            <mxPoint x="850" y="-940"/>
                        </Array>
                    </mxGeometry>
                </mxCell>
                <mxCell id="qgahOEUiVm1OIHHilqF--90" value="&lt;font style=&quot;font-size: 15px;&quot;&gt;เอา&lt;/font&gt;" style="rounded=0;whiteSpace=wrap;html=1;" parent="1" vertex="1">
                    <mxGeometry x="970" y="-960" width="120" height="40" as="geometry"/>
                </mxCell>
                <mxCell id="qgahOEUiVm1OIHHilqF--169" style="edgeStyle=none;html=1;exitX=0;exitY=0.5;exitDx=0;exitDy=0;entryX=0.5;entryY=0;entryDx=0;entryDy=0;" parent="1" source="qgahOEUiVm1OIHHilqF--91" target="qgahOEUiVm1OIHHilqF--118" edge="1">
                    <mxGeometry relative="1" as="geometry">
                        <Array as="points">
                            <mxPoint x="850" y="-860"/>
                        </Array>
                    </mxGeometry>
                </mxCell>
                <mxCell id="qgahOEUiVm1OIHHilqF--91" value="&lt;font style=&quot;font-size: 15px;&quot;&gt;เอา&lt;/font&gt;" style="rounded=0;whiteSpace=wrap;html=1;" parent="1" vertex="1">
                    <mxGeometry x="1140" y="-882.5" width="120" height="45" as="geometry"/>
                </mxCell>
                <mxCell id="qgahOEUiVm1OIHHilqF--177" style="edgeStyle=none;html=1;exitX=0;exitY=0.5;exitDx=0;exitDy=0;entryX=0.5;entryY=0;entryDx=0;entryDy=0;" parent="1" source="qgahOEUiVm1OIHHilqF--92" target="qgahOEUiVm1OIHHilqF--118" edge="1">
                    <mxGeometry relative="1" as="geometry">
                        <Array as="points">
                            <mxPoint x="850" y="-780"/>
                        </Array>
                    </mxGeometry>
                </mxCell>
                <mxCell id="qgahOEUiVm1OIHHilqF--92" value="&lt;font style=&quot;font-size: 15px;&quot;&gt;เอา&lt;/font&gt;" style="rounded=0;whiteSpace=wrap;html=1;" parent="1" vertex="1">
                    <mxGeometry x="1335" y="-800" width="120" height="40" as="geometry"/>
                </mxCell>
                <mxCell id="qgahOEUiVm1OIHHilqF--115" style="edgeStyle=none;html=1;exitX=0.5;exitY=1;exitDx=0;exitDy=0;entryX=1;entryY=0.5;entryDx=0;entryDy=0;" parent="1" source="qgahOEUiVm1OIHHilqF--93" target="qgahOEUiVm1OIHHilqF--63" edge="1">
                    <mxGeometry relative="1" as="geometry">
                        <Array as="points">
                            <mxPoint x="1710" y="-720"/>
                            <mxPoint x="1850" y="-720"/>
                            <mxPoint x="1850" y="-1180"/>
                        </Array>
                    </mxGeometry>
                </mxCell>
                <mxCell id="qgahOEUiVm1OIHHilqF--93" value="&lt;font style=&quot;font-size: 15px;&quot;&gt;ไม่เอา&lt;/font&gt;" style="rounded=0;whiteSpace=wrap;html=1;" parent="1" vertex="1">
                    <mxGeometry x="1650" y="-800" width="120" height="40" as="geometry"/>
                </mxCell>
                <mxCell id="qgahOEUiVm1OIHHilqF--104" value="&lt;font style=&quot;font-size: 15px;&quot;&gt;จริง&lt;/font&gt;" style="text;html=1;align=center;verticalAlign=middle;whiteSpace=wrap;rounded=0;" parent="1" vertex="1">
                    <mxGeometry x="1070" y="-1030" width="60" height="30" as="geometry"/>
                </mxCell>
                <mxCell id="qgahOEUiVm1OIHHilqF--105" value="&lt;font style=&quot;font-size: 15px;&quot;&gt;จริง&lt;/font&gt;" style="text;html=1;align=center;verticalAlign=middle;whiteSpace=wrap;rounded=0;" parent="1" vertex="1">
                    <mxGeometry x="1250" y="-950" width="60" height="30" as="geometry"/>
                </mxCell>
                <mxCell id="qgahOEUiVm1OIHHilqF--107" value="&lt;font style=&quot;font-size: 15px;&quot;&gt;จริง&lt;/font&gt;" style="text;html=1;align=center;verticalAlign=middle;whiteSpace=wrap;rounded=0;" parent="1" vertex="1">
                    <mxGeometry x="1420" y="-860" width="60" height="30" as="geometry"/>
                </mxCell>
                <mxCell id="qgahOEUiVm1OIHHilqF--110" value="&lt;font style=&quot;font-size: 15px;&quot;&gt;เท็จ&lt;/font&gt;" style="text;html=1;align=center;verticalAlign=middle;whiteSpace=wrap;rounded=0;" parent="1" vertex="1">
                    <mxGeometry x="1340" y="-1030" width="60" height="30" as="geometry"/>
                </mxCell>
                <mxCell id="qgahOEUiVm1OIHHilqF--111" value="&lt;font style=&quot;font-size: 15px;&quot;&gt;เท็จ&lt;/font&gt;" style="text;html=1;align=center;verticalAlign=middle;whiteSpace=wrap;rounded=0;" parent="1" vertex="1">
                    <mxGeometry x="1500" y="-950" width="60" height="30" as="geometry"/>
                </mxCell>
                <mxCell id="qgahOEUiVm1OIHHilqF--112" value="&lt;font style=&quot;font-size: 15px;&quot;&gt;เท็จ&lt;/font&gt;" style="text;html=1;align=center;verticalAlign=middle;whiteSpace=wrap;rounded=0;" parent="1" vertex="1">
                    <mxGeometry x="1650" y="-860" width="60" height="30" as="geometry"/>
                </mxCell>
                <mxCell id="qgahOEUiVm1OIHHilqF--141" style="edgeStyle=none;html=1;exitX=0.5;exitY=1;exitDx=0;exitDy=0;" parent="1" edge="1">
                    <mxGeometry relative="1" as="geometry">
                        <mxPoint x="850.0105263157895" y="-520" as="targetPoint"/>
                        <mxPoint x="849.8000000000002" y="-550" as="sourcePoint"/>
                        <Array as="points"/>
                    </mxGeometry>
                </mxCell>
                <mxCell id="qgahOEUiVm1OIHHilqF--118" value="" style="ellipse;whiteSpace=wrap;html=1;aspect=fixed;" parent="1" vertex="1">
                    <mxGeometry x="825" y="-600" width="50" height="50" as="geometry"/>
                </mxCell>
                <mxCell id="484" style="edgeStyle=none;html=1;exitX=0.5;exitY=1;exitDx=0;exitDy=0;entryX=0.5;entryY=0;entryDx=0;entryDy=0;" edge="1" parent="1" source="qgahOEUiVm1OIHHilqF--140" target="482">
                    <mxGeometry relative="1" as="geometry"/>
                </mxCell>
                <mxCell id="qgahOEUiVm1OIHHilqF--140" value="&lt;font style=&quot;font-size: 15px;&quot;&gt;ลูกค้าหยอดตู้ชำระเงิน&lt;/font&gt;" style="rounded=0;whiteSpace=wrap;html=1;" parent="1" vertex="1">
                    <mxGeometry x="765" y="-50" width="170" height="60" as="geometry"/>
                </mxCell>
                <mxCell id="45" style="edgeStyle=none;html=1;exitX=1;exitY=0.5;exitDx=0;exitDy=0;entryX=1;entryY=0.5;entryDx=0;entryDy=0;" edge="1" parent="1">
                    <mxGeometry relative="1" as="geometry">
                        <mxPoint x="962.5" y="-480" as="sourcePoint"/>
                        <mxPoint x="859.9999999999777" y="-1187.5" as="targetPoint"/>
                        <Array as="points">
                            <mxPoint x="1842.5" y="-480"/>
                            <mxPoint x="1850" y="-480"/>
                            <mxPoint x="1850" y="-520"/>
                            <mxPoint x="1850" y="-560"/>
                            <mxPoint x="1850" y="-650"/>
                            <mxPoint x="1850" y="-830"/>
                            <mxPoint x="1852.5" y="-1180"/>
                        </Array>
                    </mxGeometry>
                </mxCell>
                <mxCell id="93" style="edgeStyle=none;html=1;exitX=0.5;exitY=1;exitDx=0;exitDy=0;entryX=0.5;entryY=0;entryDx=0;entryDy=0;" edge="1" parent="1" source="38" target="91">
                    <mxGeometry relative="1" as="geometry"/>
                </mxCell>
                <mxCell id="38" value="&lt;font style=&quot;font-size: 15px;&quot;&gt;สินค้าที่ลูกค้าต้องการมีหรือไหม&lt;/font&gt;" style="rhombus;whiteSpace=wrap;html=1;" vertex="1" parent="1">
                    <mxGeometry x="740" y="-520" width="220" height="80" as="geometry"/>
                </mxCell>
                <mxCell id="42" value="&lt;span style=&quot;font-size: 15px;&quot;&gt;จริง&lt;/span&gt;" style="text;html=1;align=center;verticalAlign=middle;whiteSpace=wrap;rounded=0;" vertex="1" parent="1">
                    <mxGeometry x="797.5" y="-410" width="60" height="30" as="geometry"/>
                </mxCell>
                <mxCell id="46" value="&lt;span style=&quot;font-size: 15px;&quot;&gt;เท็จ&lt;/span&gt;" style="text;html=1;align=center;verticalAlign=middle;whiteSpace=wrap;rounded=0;" vertex="1" parent="1">
                    <mxGeometry x="1080" y="-510" width="60" height="30" as="geometry"/>
                </mxCell>
                <mxCell id="58" style="edgeStyle=none;html=1;exitX=1;exitY=0.5;exitDx=0;exitDy=0;entryX=0.5;entryY=0;entryDx=0;entryDy=0;" edge="1" parent="1" source="48">
                    <mxGeometry relative="1" as="geometry">
                        <mxPoint x="1030" y="313.13" as="targetPoint"/>
                        <Array as="points">
                            <mxPoint x="1030" y="243.13"/>
                        </Array>
                    </mxGeometry>
                </mxCell>
                <mxCell id="480" style="edgeStyle=none;html=1;exitX=0;exitY=0.5;exitDx=0;exitDy=0;entryX=0.5;entryY=0;entryDx=0;entryDy=0;" edge="1" parent="1" source="48">
                    <mxGeometry relative="1" as="geometry">
                        <mxPoint x="660" y="313.1300000000001" as="targetPoint"/>
                        <Array as="points">
                            <mxPoint x="660" y="243.13"/>
                        </Array>
                    </mxGeometry>
                </mxCell>
                <mxCell id="48" value="&lt;span style=&quot;font-size: 15px;&quot;&gt;เงินที่หยอด&amp;lt;ราคาสินค้า&lt;/span&gt;" style="rhombus;whiteSpace=wrap;html=1;" vertex="1" parent="1">
                    <mxGeometry x="765" y="203.13" width="170" height="80" as="geometry"/>
                </mxCell>
                <mxCell id="61" style="edgeStyle=none;html=1;exitX=0.5;exitY=1;exitDx=0;exitDy=0;entryX=0.5;entryY=0;entryDx=0;entryDy=0;" edge="1" parent="1">
                    <mxGeometry relative="1" as="geometry">
                        <mxPoint x="1030" y="373.13" as="sourcePoint"/>
                        <mxPoint x="1030" y="433.13" as="targetPoint"/>
                    </mxGeometry>
                </mxCell>
                <mxCell id="52" value="&lt;font style=&quot;font-size: 15px;&quot;&gt;แจ้งยอดเงินไม่เพียงพอ&lt;/font&gt;" style="rounded=0;whiteSpace=wrap;html=1;" vertex="1" parent="1">
                    <mxGeometry x="970" y="313.13" width="120" height="60" as="geometry"/>
                </mxCell>
                <mxCell id="54" value="&lt;font style=&quot;font-size: 15px;&quot;&gt;เท็จ&lt;/font&gt;" style="text;html=1;align=center;verticalAlign=middle;whiteSpace=wrap;rounded=0;" vertex="1" parent="1">
                    <mxGeometry x="680" y="213.13" width="60" height="30" as="geometry"/>
                </mxCell>
                <mxCell id="56" value="&lt;font style=&quot;font-size: 15px;&quot;&gt;จริง&lt;/font&gt;" style="text;html=1;align=center;verticalAlign=middle;whiteSpace=wrap;rounded=0;" vertex="1" parent="1">
                    <mxGeometry x="950" y="213.13" width="60" height="30" as="geometry"/>
                </mxCell>
                <mxCell id="753" style="edgeStyle=none;html=1;exitX=0.5;exitY=1;exitDx=0;exitDy=0;entryX=1;entryY=0.5;entryDx=0;entryDy=0;" edge="1" parent="1" source="60" target="481">
                    <mxGeometry relative="1" as="geometry">
                        <Array as="points">
                            <mxPoint x="1030" y="910"/>
                        </Array>
                    </mxGeometry>
                </mxCell>
                <mxCell id="60" value="&lt;font style=&quot;font-size: 15px;&quot;&gt;ยกเลิกการสั่ง&lt;/font&gt;" style="rounded=0;whiteSpace=wrap;html=1;" vertex="1" parent="1">
                    <mxGeometry x="970" y="433.13" width="120" height="60" as="geometry"/>
                </mxCell>
                <mxCell id="89" style="edgeStyle=none;html=1;exitX=0.5;exitY=1;exitDx=0;exitDy=0;entryX=0.5;entryY=0;entryDx=0;entryDy=0;" edge="1" parent="1" source="64" target="88">
                    <mxGeometry relative="1" as="geometry"/>
                </mxCell>
                <mxCell id="64" value="&lt;span style=&quot;font-size: 15px;&quot;&gt;เริ่มต้น&lt;/span&gt;" style="ellipse;whiteSpace=wrap;html=1;" vertex="1" parent="1">
                    <mxGeometry x="785" y="-2360" width="120" height="80" as="geometry"/>
                </mxCell>
                <mxCell id="75" style="edgeStyle=none;html=1;exitX=0.5;exitY=1;exitDx=0;exitDy=0;entryX=0.5;entryY=0;entryDx=0;entryDy=0;" edge="1" parent="1" source="66" target="67">
                    <mxGeometry relative="1" as="geometry"/>
                </mxCell>
                <mxCell id="66" value="&lt;font style=&quot;font-size: 14px;&quot;&gt;BANK1000 = 1&lt;/font&gt;" style="rounded=0;whiteSpace=wrap;html=1;" vertex="1" parent="1">
                    <mxGeometry x="785" y="-2140" width="120" height="60" as="geometry"/>
                </mxCell>
                <mxCell id="76" style="edgeStyle=none;html=1;exitX=0.5;exitY=1;exitDx=0;exitDy=0;entryX=0.5;entryY=0;entryDx=0;entryDy=0;" edge="1" parent="1" source="67" target="68">
                    <mxGeometry relative="1" as="geometry"/>
                </mxCell>
                <mxCell id="67" value="&lt;font style=&quot;font-size: 15px;&quot;&gt;BANK 500 = 1&lt;/font&gt;" style="rounded=0;whiteSpace=wrap;html=1;" vertex="1" parent="1">
                    <mxGeometry x="785" y="-2040" width="120" height="60" as="geometry"/>
                </mxCell>
                <mxCell id="77" style="edgeStyle=none;html=1;exitX=0.5;exitY=1;exitDx=0;exitDy=0;entryX=0.5;entryY=0;entryDx=0;entryDy=0;" edge="1" parent="1" source="68" target="69">
                    <mxGeometry relative="1" as="geometry"/>
                </mxCell>
                <mxCell id="68" value="&lt;font style=&quot;font-size: 15px;&quot;&gt;BANK100 = 3&lt;/font&gt;" style="rounded=0;whiteSpace=wrap;html=1;" vertex="1" parent="1">
                    <mxGeometry x="785" y="-1940" width="120" height="60" as="geometry"/>
                </mxCell>
                <mxCell id="82" style="edgeStyle=none;html=1;exitX=0.5;exitY=1;exitDx=0;exitDy=0;entryX=0.5;entryY=0;entryDx=0;entryDy=0;" edge="1" parent="1" source="69" target="70">
                    <mxGeometry relative="1" as="geometry"/>
                </mxCell>
                <mxCell id="69" value="&lt;font style=&quot;font-size: 15px;&quot;&gt;BANK 50 = 8&lt;/font&gt;" style="rounded=0;whiteSpace=wrap;html=1;" vertex="1" parent="1">
                    <mxGeometry x="785" y="-1840" width="120" height="60" as="geometry"/>
                </mxCell>
                <mxCell id="79" style="edgeStyle=none;html=1;exitX=0.5;exitY=1;exitDx=0;exitDy=0;entryX=0.5;entryY=0;entryDx=0;entryDy=0;" edge="1" parent="1" source="70" target="71">
                    <mxGeometry relative="1" as="geometry"/>
                </mxCell>
                <mxCell id="70" value="&lt;font style=&quot;font-size: 15px;&quot;&gt;BANK 20 = 15&lt;/font&gt;" style="rounded=0;whiteSpace=wrap;html=1;" vertex="1" parent="1">
                    <mxGeometry x="785" y="-1740" width="120" height="60" as="geometry"/>
                </mxCell>
                <mxCell id="80" style="edgeStyle=none;html=1;exitX=0.5;exitY=1;exitDx=0;exitDy=0;entryX=0.5;entryY=0;entryDx=0;entryDy=0;" edge="1" parent="1" source="71" target="72">
                    <mxGeometry relative="1" as="geometry"/>
                </mxCell>
                <mxCell id="71" value="&lt;font style=&quot;font-size: 15px;&quot;&gt;COIN 10 = 200&lt;/font&gt;" style="rounded=0;whiteSpace=wrap;html=1;" vertex="1" parent="1">
                    <mxGeometry x="785" y="-1640" width="120" height="60" as="geometry"/>
                </mxCell>
                <mxCell id="81" style="edgeStyle=none;html=1;exitX=0.5;exitY=1;exitDx=0;exitDy=0;entryX=0.5;entryY=0;entryDx=0;entryDy=0;" edge="1" parent="1" source="72" target="73">
                    <mxGeometry relative="1" as="geometry"/>
                </mxCell>
                <mxCell id="72" value="&lt;font style=&quot;font-size: 15px;&quot;&gt;COIN 5 = 500&lt;/font&gt;" style="rounded=0;whiteSpace=wrap;html=1;" vertex="1" parent="1">
                    <mxGeometry x="785" y="-1540" width="120" height="60" as="geometry"/>
                </mxCell>
                <mxCell id="83" style="edgeStyle=none;html=1;exitX=0.5;exitY=1;exitDx=0;exitDy=0;entryX=0.5;entryY=0;entryDx=0;entryDy=0;" edge="1" parent="1" source="73" target="9">
                    <mxGeometry relative="1" as="geometry">
                        <mxPoint x="849.7692307692305" y="-1310" as="targetPoint"/>
                    </mxGeometry>
                </mxCell>
                <mxCell id="73" value="&lt;font style=&quot;font-size: 15px;&quot;&gt;COIN 1 = 1000&lt;/font&gt;" style="rounded=0;whiteSpace=wrap;html=1;" vertex="1" parent="1">
                    <mxGeometry x="785" y="-1440" width="120" height="60" as="geometry"/>
                </mxCell>
                <mxCell id="90" style="edgeStyle=none;html=1;exitX=0.5;exitY=1;exitDx=0;exitDy=0;entryX=0.5;entryY=0;entryDx=0;entryDy=0;" edge="1" parent="1" source="88" target="66">
                    <mxGeometry relative="1" as="geometry"/>
                </mxCell>
                <mxCell id="88" value="&lt;font style=&quot;font-size: 15px;&quot;&gt;จำนวนเงินทั้งหมดในตู้&lt;/font&gt;" style="rounded=0;whiteSpace=wrap;html=1;" vertex="1" parent="1">
                    <mxGeometry x="785" y="-2240" width="120" height="60" as="geometry"/>
                </mxCell>
                <mxCell id="94" style="edgeStyle=none;html=1;exitX=0.5;exitY=1;exitDx=0;exitDy=0;entryX=0.5;entryY=0;entryDx=0;entryDy=0;" edge="1" parent="1" source="91" target="92">
                    <mxGeometry relative="1" as="geometry"/>
                </mxCell>
                <mxCell id="91" value="&lt;font style=&quot;font-size: 15px;&quot;&gt;แสดงรายการสินค้าที่ลูกค้าเลือกทั้งหมด&lt;/font&gt;" style="rounded=0;whiteSpace=wrap;html=1;" vertex="1" parent="1">
                    <mxGeometry x="770" y="-360" width="160" height="60" as="geometry"/>
                </mxCell>
                <mxCell id="487" style="edgeStyle=none;html=1;exitX=0.5;exitY=1;exitDx=0;exitDy=0;entryX=0.5;entryY=0;entryDx=0;entryDy=0;" edge="1" parent="1" source="92" target="485">
                    <mxGeometry relative="1" as="geometry"/>
                </mxCell>
                <mxCell id="92" value="&lt;font style=&quot;font-size: 15px;&quot;&gt;แสดงยอดสินค้าทั้งหมด&lt;/font&gt;" style="rounded=0;whiteSpace=wrap;html=1;" vertex="1" parent="1">
                    <mxGeometry x="770" y="-240" width="160" height="60" as="geometry"/>
                </mxCell>
                <mxCell id="476" style="edgeStyle=none;html=1;exitX=0.5;exitY=1;exitDx=0;exitDy=0;entryX=0.5;entryY=0;entryDx=0;entryDy=0;" edge="1" parent="1" source="348" target="350">
                    <mxGeometry relative="1" as="geometry"/>
                </mxCell>
                <mxCell id="348" value="&lt;span style=&quot;font-weight: normal;&quot;&gt;&lt;font style=&quot;font-size: 15px;&quot;&gt;เริ่มต้นเงินทอน&lt;/font&gt;&lt;/span&gt;" style="ellipse;whiteSpace=wrap;html=1;fontStyle=1" vertex="1" parent="1">
                    <mxGeometry x="-730" y="93.75" width="119" height="55" as="geometry"/>
                </mxCell>
                <mxCell id="349" style="edgeStyle=orthogonalEdgeStyle;rounded=0;orthogonalLoop=1;jettySize=auto;html=1;entryX=0.5;entryY=0;entryDx=0;entryDy=0;" edge="1" parent="1" source="350">
                    <mxGeometry relative="1" as="geometry">
                        <mxPoint x="-669.5" y="363.75" as="targetPoint"/>
                    </mxGeometry>
                </mxCell>
                <mxCell id="350" value="&lt;font style=&quot;font-size: 15px;&quot;&gt;เงินเข้า - ของ = ทอน&lt;/font&gt;" style="rounded=0;whiteSpace=wrap;html=1;" vertex="1" parent="1">
                    <mxGeometry x="-729.5" y="213.75" width="120" height="60" as="geometry"/>
                </mxCell>
                <mxCell id="351" style="edgeStyle=orthogonalEdgeStyle;rounded=0;orthogonalLoop=1;jettySize=auto;html=1;exitX=0.5;exitY=1;exitDx=0;exitDy=0;entryX=0.5;entryY=0;entryDx=0;entryDy=0;" edge="1" parent="1" source="353" target="356">
                    <mxGeometry relative="1" as="geometry"/>
                </mxCell>
                <mxCell id="352" style="edgeStyle=orthogonalEdgeStyle;rounded=0;orthogonalLoop=1;jettySize=auto;html=1;" edge="1" parent="1" source="353" target="374">
                    <mxGeometry relative="1" as="geometry"/>
                </mxCell>
                <mxCell id="353" value="&lt;font&gt;ทอน &amp;gt;= 500&lt;/font&gt;" style="rhombus;whiteSpace=wrap;html=1;" vertex="1" parent="1">
                    <mxGeometry x="-710" y="365" width="80" height="60" as="geometry"/>
                </mxCell>
                <mxCell id="354" style="edgeStyle=orthogonalEdgeStyle;rounded=0;orthogonalLoop=1;jettySize=auto;html=1;exitX=0.5;exitY=1;exitDx=0;exitDy=0;entryX=0.5;entryY=0;entryDx=0;entryDy=0;" edge="1" parent="1" source="356" target="359">
                    <mxGeometry relative="1" as="geometry"/>
                </mxCell>
                <mxCell id="355" style="edgeStyle=orthogonalEdgeStyle;rounded=0;orthogonalLoop=1;jettySize=auto;html=1;entryX=0;entryY=0.5;entryDx=0;entryDy=0;" edge="1" parent="1" source="356" target="389">
                    <mxGeometry relative="1" as="geometry"/>
                </mxCell>
                <mxCell id="356" value="ทอน &amp;gt;= 100" style="rhombus;whiteSpace=wrap;html=1;" vertex="1" parent="1">
                    <mxGeometry x="-710.5" y="435" width="80" height="60" as="geometry"/>
                </mxCell>
                <mxCell id="357" style="edgeStyle=orthogonalEdgeStyle;rounded=0;orthogonalLoop=1;jettySize=auto;html=1;exitX=0.5;exitY=1;exitDx=0;exitDy=0;entryX=0.5;entryY=0;entryDx=0;entryDy=0;" edge="1" parent="1" source="359" target="362">
                    <mxGeometry relative="1" as="geometry"/>
                </mxCell>
                <mxCell id="358" style="edgeStyle=orthogonalEdgeStyle;rounded=0;orthogonalLoop=1;jettySize=auto;html=1;entryX=0;entryY=0.5;entryDx=0;entryDy=0;" edge="1" parent="1" source="359" target="390">
                    <mxGeometry relative="1" as="geometry"/>
                </mxCell>
                <mxCell id="359" value="ทอน &amp;gt;= 50" style="rhombus;whiteSpace=wrap;html=1;" vertex="1" parent="1">
                    <mxGeometry x="-710.5" y="505" width="80" height="60" as="geometry"/>
                </mxCell>
                <mxCell id="360" style="edgeStyle=orthogonalEdgeStyle;rounded=0;orthogonalLoop=1;jettySize=auto;html=1;exitX=0.5;exitY=1;exitDx=0;exitDy=0;" edge="1" parent="1" source="362">
                    <mxGeometry relative="1" as="geometry">
                        <mxPoint x="-670.5" y="645" as="targetPoint"/>
                    </mxGeometry>
                </mxCell>
                <mxCell id="361" style="edgeStyle=orthogonalEdgeStyle;rounded=0;orthogonalLoop=1;jettySize=auto;html=1;entryX=0;entryY=0.5;entryDx=0;entryDy=0;" edge="1" parent="1" source="362" target="391">
                    <mxGeometry relative="1" as="geometry"/>
                </mxCell>
                <mxCell id="362" value="ทอน &amp;gt;= 20" style="rhombus;whiteSpace=wrap;html=1;" vertex="1" parent="1">
                    <mxGeometry x="-710.5" y="575" width="80" height="60" as="geometry"/>
                </mxCell>
                <mxCell id="363" style="edgeStyle=orthogonalEdgeStyle;rounded=0;orthogonalLoop=1;jettySize=auto;html=1;exitX=0.5;exitY=1;exitDx=0;exitDy=0;entryX=0.5;entryY=0;entryDx=0;entryDy=0;" edge="1" parent="1" source="365" target="368">
                    <mxGeometry relative="1" as="geometry"/>
                </mxCell>
                <mxCell id="364" style="edgeStyle=orthogonalEdgeStyle;rounded=0;orthogonalLoop=1;jettySize=auto;html=1;entryX=0;entryY=0.5;entryDx=0;entryDy=0;" edge="1" parent="1" source="365" target="393">
                    <mxGeometry relative="1" as="geometry"/>
                </mxCell>
                <mxCell id="365" value="ทอน &amp;gt;= 10" style="rhombus;whiteSpace=wrap;html=1;" vertex="1" parent="1">
                    <mxGeometry x="-710" y="648.5" width="80" height="60" as="geometry"/>
                </mxCell>
                <mxCell id="366" style="edgeStyle=orthogonalEdgeStyle;rounded=0;orthogonalLoop=1;jettySize=auto;html=1;exitX=0.5;exitY=1;exitDx=0;exitDy=0;" edge="1" parent="1" source="368">
                    <mxGeometry relative="1" as="geometry">
                        <mxPoint x="-670.4999999999998" y="809.9999999999998" as="targetPoint"/>
                    </mxGeometry>
                </mxCell>
                <mxCell id="367" style="edgeStyle=orthogonalEdgeStyle;rounded=0;orthogonalLoop=1;jettySize=auto;html=1;entryX=0;entryY=0.5;entryDx=0;entryDy=0;" edge="1" parent="1" source="368" target="394">
                    <mxGeometry relative="1" as="geometry"/>
                </mxCell>
                <mxCell id="368" value="ทอน &amp;gt;= 5" style="rhombus;whiteSpace=wrap;html=1;" vertex="1" parent="1">
                    <mxGeometry x="-710.5" y="725" width="80" height="60" as="geometry"/>
                </mxCell>
                <mxCell id="369" value="N" style="text;html=1;align=center;verticalAlign=middle;whiteSpace=wrap;rounded=0;" vertex="1" parent="1">
                    <mxGeometry x="-719.5" y="415" width="60" height="30" as="geometry"/>
                </mxCell>
                <mxCell id="370" value="N" style="text;html=1;align=center;verticalAlign=middle;whiteSpace=wrap;rounded=0;" vertex="1" parent="1">
                    <mxGeometry x="-719.5" y="485" width="60" height="30" as="geometry"/>
                </mxCell>
                <mxCell id="371" value="N" style="text;html=1;align=center;verticalAlign=middle;whiteSpace=wrap;rounded=0;" vertex="1" parent="1">
                    <mxGeometry x="-719.5" y="555" width="60" height="30" as="geometry"/>
                </mxCell>
                <mxCell id="372" value="N" style="text;html=1;align=center;verticalAlign=middle;whiteSpace=wrap;rounded=0;" vertex="1" parent="1">
                    <mxGeometry x="-719.5" y="625" width="60" height="30" as="geometry"/>
                </mxCell>
                <mxCell id="373" value="N" style="text;html=1;align=center;verticalAlign=middle;whiteSpace=wrap;rounded=0;" vertex="1" parent="1">
                    <mxGeometry x="-719.5" y="709" width="60" height="30" as="geometry"/>
                </mxCell>
                <mxCell id="374" value="BANK500= 0" style="rhombus;whiteSpace=wrap;html=1;fontSize=11;" vertex="1" parent="1">
                    <mxGeometry x="-598.5" y="365" width="80" height="60" as="geometry"/>
                </mxCell>
                <mxCell id="375" value="BANK500 -1" style="rounded=0;whiteSpace=wrap;html=1;" vertex="1" parent="1">
                    <mxGeometry x="-498.5" y="377.5" width="80" height="37.5" as="geometry"/>
                </mxCell>
                <mxCell id="376" style="edgeStyle=orthogonalEdgeStyle;rounded=0;orthogonalLoop=1;jettySize=auto;html=1;entryX=0;entryY=0.5;entryDx=0;entryDy=0;" edge="1" parent="1" source="377">
                    <mxGeometry relative="1" as="geometry">
                        <mxPoint x="-288.5000000000002" y="395" as="targetPoint"/>
                    </mxGeometry>
                </mxCell>
                <mxCell id="377" value="ทอน - 500" style="rounded=0;whiteSpace=wrap;html=1;" vertex="1" parent="1">
                    <mxGeometry x="-388.5" y="376.25" width="80" height="37.5" as="geometry"/>
                </mxCell>
                <mxCell id="378" value="" style="endArrow=classic;html=1;rounded=0;entryX=0.981;entryY=0.637;entryDx=0;entryDy=0;entryPerimeter=0;" edge="1" parent="1">
                    <mxGeometry width="50" height="50" relative="1" as="geometry">
                        <mxPoint x="-558.3599999999999" y="429.79999999999995" as="sourcePoint"/>
                        <mxPoint x="-660.5" y="429.9100000000001" as="targetPoint"/>
                    </mxGeometry>
                </mxCell>
                <mxCell id="379" value="" style="endArrow=none;html=1;rounded=0;" edge="1" parent="1" target="374">
                    <mxGeometry width="50" height="50" relative="1" as="geometry">
                        <mxPoint x="-558.5" y="430" as="sourcePoint"/>
                        <mxPoint x="-538.5" y="410" as="targetPoint"/>
                    </mxGeometry>
                </mxCell>
                <mxCell id="380" style="edgeStyle=orthogonalEdgeStyle;rounded=0;orthogonalLoop=1;jettySize=auto;html=1;entryX=-0.032;entryY=0.541;entryDx=0;entryDy=0;entryPerimeter=0;" edge="1" parent="1" source="375" target="377">
                    <mxGeometry relative="1" as="geometry"/>
                </mxCell>
                <mxCell id="381" style="edgeStyle=orthogonalEdgeStyle;rounded=0;orthogonalLoop=1;jettySize=auto;html=1;" edge="1" parent="1">
                    <mxGeometry relative="1" as="geometry">
                        <mxPoint x="-518.5" y="394.8599999999999" as="sourcePoint"/>
                        <mxPoint x="-498.5" y="395.1099999999999" as="targetPoint"/>
                    </mxGeometry>
                </mxCell>
                <mxCell id="382" value="" style="endArrow=none;html=1;rounded=0;exitX=0.5;exitY=0;exitDx=0;exitDy=0;" edge="1" parent="1">
                    <mxGeometry width="50" height="50" relative="1" as="geometry">
                        <mxPoint x="-119.50000000000023" y="376.25" as="sourcePoint"/>
                        <mxPoint x="-119.5" y="350" as="targetPoint"/>
                    </mxGeometry>
                </mxCell>
                <mxCell id="383" value="" style="endArrow=classic;html=1;rounded=0;" edge="1" parent="1">
                    <mxGeometry width="50" height="50" relative="1" as="geometry">
                        <mxPoint x="-118.5" y="350" as="sourcePoint"/>
                        <mxPoint x="-668.5" y="350" as="targetPoint"/>
                    </mxGeometry>
                </mxCell>
                <mxCell id="384" value="N" style="text;html=1;align=center;verticalAlign=middle;whiteSpace=wrap;rounded=0;" vertex="1" parent="1">
                    <mxGeometry x="-538.5" y="369" width="60" height="30" as="geometry"/>
                </mxCell>
                <mxCell id="385" style="edgeStyle=orthogonalEdgeStyle;rounded=0;orthogonalLoop=1;jettySize=auto;html=1;exitX=1;exitY=0.5;exitDx=0;exitDy=0;" edge="1" parent="1" source="386">
                    <mxGeometry relative="1" as="geometry">
                        <mxPoint x="-168.5" y="394.2941176470588" as="targetPoint"/>
                    </mxGeometry>
                </mxCell>
                <mxCell id="386" value="ทอน BANK500" style="shape=parallelogram;perimeter=parallelogramPerimeter;whiteSpace=wrap;html=1;fixedSize=1;" vertex="1" parent="1">
                    <mxGeometry x="-288.5" y="377.5" width="110" height="32.5" as="geometry"/>
                </mxCell>
                <mxCell id="387" value="Y" style="text;html=1;align=center;verticalAlign=middle;whiteSpace=wrap;rounded=0;" vertex="1" parent="1">
                    <mxGeometry x="-648.5" y="369" width="60" height="30" as="geometry"/>
                </mxCell>
                <mxCell id="388" style="edgeStyle=orthogonalEdgeStyle;rounded=0;orthogonalLoop=1;jettySize=auto;html=1;exitX=1;exitY=0.5;exitDx=0;exitDy=0;entryX=0;entryY=0.5;entryDx=0;entryDy=0;" edge="1" parent="1" source="389" target="396">
                    <mxGeometry relative="1" as="geometry"/>
                </mxCell>
                <mxCell id="389" value="BANK100= 0" style="rhombus;whiteSpace=wrap;html=1;fontSize=11;" vertex="1" parent="1">
                    <mxGeometry x="-598.5" y="435" width="80" height="60" as="geometry"/>
                </mxCell>
                <mxCell id="390" value="BANK50= 0" style="rhombus;whiteSpace=wrap;html=1;fontSize=11;" vertex="1" parent="1">
                    <mxGeometry x="-598.5" y="505" width="80" height="60" as="geometry"/>
                </mxCell>
                <mxCell id="391" value="BANK20= 0" style="rhombus;whiteSpace=wrap;html=1;fontSize=11;" vertex="1" parent="1">
                    <mxGeometry x="-598.5" y="575" width="80" height="60" as="geometry"/>
                </mxCell>
                <mxCell id="392" style="edgeStyle=orthogonalEdgeStyle;rounded=0;orthogonalLoop=1;jettySize=auto;html=1;exitX=1;exitY=0.5;exitDx=0;exitDy=0;entryX=0;entryY=0.5;entryDx=0;entryDy=0;" edge="1" parent="1" source="393" target="401">
                    <mxGeometry relative="1" as="geometry"/>
                </mxCell>
                <mxCell id="393" value="BANK10= 0" style="rhombus;whiteSpace=wrap;html=1;fontSize=11;" vertex="1" parent="1">
                    <mxGeometry x="-598.5" y="648.5" width="80" height="60" as="geometry"/>
                </mxCell>
                <mxCell id="394" value="BANK5= 0" style="rhombus;whiteSpace=wrap;html=1;fontSize=11;" vertex="1" parent="1">
                    <mxGeometry x="-598.5" y="725" width="80" height="60" as="geometry"/>
                </mxCell>
                <mxCell id="395" style="edgeStyle=orthogonalEdgeStyle;rounded=0;orthogonalLoop=1;jettySize=auto;html=1;exitX=1;exitY=0.5;exitDx=0;exitDy=0;entryX=-0.038;entryY=0.54;entryDx=0;entryDy=0;entryPerimeter=0;" edge="1" parent="1" source="396" target="405">
                    <mxGeometry relative="1" as="geometry">
                        <mxPoint x="-398.5000000000002" y="465.16666666666674" as="targetPoint"/>
                    </mxGeometry>
                </mxCell>
                <mxCell id="396" value="BANK100 -1" style="rounded=0;whiteSpace=wrap;html=1;" vertex="1" parent="1">
                    <mxGeometry x="-498.5" y="446.25" width="80" height="37.5" as="geometry"/>
                </mxCell>
                <mxCell id="397" style="edgeStyle=orthogonalEdgeStyle;rounded=0;orthogonalLoop=1;jettySize=auto;html=1;exitX=1;exitY=0.5;exitDx=0;exitDy=0;entryX=0;entryY=0.5;entryDx=0;entryDy=0;" edge="1" parent="1" source="398" target="407">
                    <mxGeometry relative="1" as="geometry"/>
                </mxCell>
                <mxCell id="398" value="BANK50 -1" style="rounded=0;whiteSpace=wrap;html=1;" vertex="1" parent="1">
                    <mxGeometry x="-498.5" y="515" width="80" height="37.5" as="geometry"/>
                </mxCell>
                <mxCell id="399" value="BANK20 -1" style="rounded=0;whiteSpace=wrap;html=1;" vertex="1" parent="1">
                    <mxGeometry x="-498.5" y="587.5" width="80" height="37.5" as="geometry"/>
                </mxCell>
                <mxCell id="400" style="edgeStyle=orthogonalEdgeStyle;rounded=0;orthogonalLoop=1;jettySize=auto;html=1;exitX=1;exitY=0.5;exitDx=0;exitDy=0;entryX=0;entryY=0.5;entryDx=0;entryDy=0;" edge="1" parent="1" source="401" target="411">
                    <mxGeometry relative="1" as="geometry"/>
                </mxCell>
                <mxCell id="401" value="BANK10 -1" style="rounded=0;whiteSpace=wrap;html=1;" vertex="1" parent="1">
                    <mxGeometry x="-498.5" y="660" width="80" height="37.5" as="geometry"/>
                </mxCell>
                <mxCell id="402" style="edgeStyle=orthogonalEdgeStyle;rounded=0;orthogonalLoop=1;jettySize=auto;html=1;exitX=1;exitY=0.5;exitDx=0;exitDy=0;entryX=0;entryY=0.5;entryDx=0;entryDy=0;" edge="1" parent="1" source="403" target="413">
                    <mxGeometry relative="1" as="geometry"/>
                </mxCell>
                <mxCell id="403" value="BANK5 -1" style="rounded=0;whiteSpace=wrap;html=1;" vertex="1" parent="1">
                    <mxGeometry x="-498.5" y="732.5" width="80" height="37.5" as="geometry"/>
                </mxCell>
                <mxCell id="404" style="edgeStyle=orthogonalEdgeStyle;rounded=0;orthogonalLoop=1;jettySize=auto;html=1;exitX=1;exitY=0.5;exitDx=0;exitDy=0;" edge="1" parent="1" source="405">
                    <mxGeometry relative="1" as="geometry">
                        <mxPoint x="-288.5" y="463.86792452830196" as="targetPoint"/>
                    </mxGeometry>
                </mxCell>
                <mxCell id="405" value="ทอน - 100" style="rounded=0;whiteSpace=wrap;html=1;" vertex="1" parent="1">
                    <mxGeometry x="-388.5" y="445" width="80" height="37.5" as="geometry"/>
                </mxCell>
                <mxCell id="406" style="edgeStyle=orthogonalEdgeStyle;rounded=0;orthogonalLoop=1;jettySize=auto;html=1;exitX=1;exitY=0.5;exitDx=0;exitDy=0;" edge="1" parent="1" source="407">
                    <mxGeometry relative="1" as="geometry">
                        <mxPoint x="-288.5" y="534" as="targetPoint"/>
                    </mxGeometry>
                </mxCell>
                <mxCell id="407" value="ทอน - 50" style="rounded=0;whiteSpace=wrap;html=1;" vertex="1" parent="1">
                    <mxGeometry x="-388.5" y="515" width="80" height="37.5" as="geometry"/>
                </mxCell>
                <mxCell id="408" style="edgeStyle=orthogonalEdgeStyle;rounded=0;orthogonalLoop=1;jettySize=auto;html=1;exitX=1;exitY=0.5;exitDx=0;exitDy=0;" edge="1" parent="1" source="409">
                    <mxGeometry relative="1" as="geometry">
                        <mxPoint x="-288.5" y="603.867924528302" as="targetPoint"/>
                    </mxGeometry>
                </mxCell>
                <mxCell id="409" value="ทอน - 20" style="rounded=0;whiteSpace=wrap;html=1;" vertex="1" parent="1">
                    <mxGeometry x="-388.5" y="585" width="80" height="37.5" as="geometry"/>
                </mxCell>
                <mxCell id="410" style="edgeStyle=orthogonalEdgeStyle;rounded=0;orthogonalLoop=1;jettySize=auto;html=1;exitX=1;exitY=0.5;exitDx=0;exitDy=0;" edge="1" parent="1" source="411">
                    <mxGeometry relative="1" as="geometry">
                        <mxPoint x="-288.5" y="678.5849056603774" as="targetPoint"/>
                    </mxGeometry>
                </mxCell>
                <mxCell id="411" value="ทอน - 10" style="rounded=0;whiteSpace=wrap;html=1;" vertex="1" parent="1">
                    <mxGeometry x="-388.5" y="659.75" width="80" height="37.5" as="geometry"/>
                </mxCell>
                <mxCell id="412" style="edgeStyle=orthogonalEdgeStyle;rounded=0;orthogonalLoop=1;jettySize=auto;html=1;exitX=1;exitY=0.5;exitDx=0;exitDy=0;" edge="1" parent="1" source="413">
                    <mxGeometry relative="1" as="geometry">
                        <mxPoint x="-288.5" y="751.4150943396228" as="targetPoint"/>
                    </mxGeometry>
                </mxCell>
                <mxCell id="413" value="ทอน - 5" style="rounded=0;whiteSpace=wrap;html=1;" vertex="1" parent="1">
                    <mxGeometry x="-388.5" y="732.5" width="80" height="37.5" as="geometry"/>
                </mxCell>
                <mxCell id="414" style="edgeStyle=orthogonalEdgeStyle;rounded=0;orthogonalLoop=1;jettySize=auto;html=1;exitX=1;exitY=0.5;exitDx=0;exitDy=0;" edge="1" parent="1" source="415">
                    <mxGeometry relative="1" as="geometry">
                        <mxPoint x="-168.5" y="462.52941176470586" as="targetPoint"/>
                    </mxGeometry>
                </mxCell>
                <mxCell id="415" value="ทอน BANK500" style="shape=parallelogram;perimeter=parallelogramPerimeter;whiteSpace=wrap;html=1;fixedSize=1;" vertex="1" parent="1">
                    <mxGeometry x="-288.5" y="446.25" width="110" height="32.5" as="geometry"/>
                </mxCell>
                <mxCell id="416" style="edgeStyle=orthogonalEdgeStyle;rounded=0;orthogonalLoop=1;jettySize=auto;html=1;exitX=1;exitY=0.5;exitDx=0;exitDy=0;" edge="1" parent="1" source="417">
                    <mxGeometry relative="1" as="geometry">
                        <mxPoint x="-168.5" y="531" as="targetPoint"/>
                    </mxGeometry>
                </mxCell>
                <mxCell id="417" value="ทอน BANK500" style="shape=parallelogram;perimeter=parallelogramPerimeter;whiteSpace=wrap;html=1;fixedSize=1;" vertex="1" parent="1">
                    <mxGeometry x="-288.5" y="515" width="110" height="32.5" as="geometry"/>
                </mxCell>
                <mxCell id="418" style="edgeStyle=orthogonalEdgeStyle;rounded=0;orthogonalLoop=1;jettySize=auto;html=1;exitX=1;exitY=0.5;exitDx=0;exitDy=0;" edge="1" parent="1" source="419">
                    <mxGeometry relative="1" as="geometry">
                        <mxPoint x="-168.5" y="601" as="targetPoint"/>
                    </mxGeometry>
                </mxCell>
                <mxCell id="419" value="ทอน BANK500" style="shape=parallelogram;perimeter=parallelogramPerimeter;whiteSpace=wrap;html=1;fixedSize=1;" vertex="1" parent="1">
                    <mxGeometry x="-288.5" y="585" width="110" height="32.5" as="geometry"/>
                </mxCell>
                <mxCell id="420" style="edgeStyle=orthogonalEdgeStyle;rounded=0;orthogonalLoop=1;jettySize=auto;html=1;exitX=1;exitY=0.5;exitDx=0;exitDy=0;" edge="1" parent="1" source="421">
                    <mxGeometry relative="1" as="geometry">
                        <mxPoint x="-168.5" y="679" as="targetPoint"/>
                    </mxGeometry>
                </mxCell>
                <mxCell id="421" value="ทอน BANK500" style="shape=parallelogram;perimeter=parallelogramPerimeter;whiteSpace=wrap;html=1;fixedSize=1;" vertex="1" parent="1">
                    <mxGeometry x="-288.5" y="662.25" width="110" height="32.5" as="geometry"/>
                </mxCell>
                <mxCell id="422" style="edgeStyle=orthogonalEdgeStyle;rounded=0;orthogonalLoop=1;jettySize=auto;html=1;exitX=1;exitY=0.5;exitDx=0;exitDy=0;" edge="1" parent="1" source="423">
                    <mxGeometry relative="1" as="geometry">
                        <mxPoint x="-168.5" y="749" as="targetPoint"/>
                    </mxGeometry>
                </mxCell>
                <mxCell id="423" value="ทอน BANK500" style="shape=parallelogram;perimeter=parallelogramPerimeter;whiteSpace=wrap;html=1;fixedSize=1;" vertex="1" parent="1">
                    <mxGeometry x="-288.5" y="732.5" width="110" height="32.5" as="geometry"/>
                </mxCell>
                <mxCell id="424" style="edgeStyle=orthogonalEdgeStyle;rounded=0;orthogonalLoop=1;jettySize=auto;html=1;exitX=1;exitY=0.5;exitDx=0;exitDy=0;entryX=-0.031;entryY=0.62;entryDx=0;entryDy=0;entryPerimeter=0;" edge="1" parent="1" source="394" target="403">
                    <mxGeometry relative="1" as="geometry"/>
                </mxCell>
                <mxCell id="425" style="edgeStyle=orthogonalEdgeStyle;rounded=0;orthogonalLoop=1;jettySize=auto;html=1;exitX=1;exitY=0.5;exitDx=0;exitDy=0;entryX=-0.054;entryY=0.488;entryDx=0;entryDy=0;entryPerimeter=0;" edge="1" parent="1" source="391" target="399">
                    <mxGeometry relative="1" as="geometry"/>
                </mxCell>
                <mxCell id="426" style="edgeStyle=orthogonalEdgeStyle;rounded=0;orthogonalLoop=1;jettySize=auto;html=1;exitX=1;exitY=0.5;exitDx=0;exitDy=0;entryX=-0.04;entryY=0.543;entryDx=0;entryDy=0;entryPerimeter=0;" edge="1" parent="1" source="390" target="398">
                    <mxGeometry relative="1" as="geometry"/>
                </mxCell>
                <mxCell id="427" style="edgeStyle=orthogonalEdgeStyle;rounded=0;orthogonalLoop=1;jettySize=auto;html=1;exitX=1;exitY=0.5;exitDx=0;exitDy=0;entryX=-0.054;entryY=0.573;entryDx=0;entryDy=0;entryPerimeter=0;" edge="1" parent="1" source="399" target="409">
                    <mxGeometry relative="1" as="geometry"/>
                </mxCell>
                <mxCell id="428" value="" style="endArrow=none;html=1;rounded=0;entryX=0.5;entryY=1;entryDx=0;entryDy=0;" edge="1" parent="1" target="389">
                    <mxGeometry width="50" height="50" relative="1" as="geometry">
                        <mxPoint x="-558.5" y="500" as="sourcePoint"/>
                        <mxPoint x="-548.5" y="490" as="targetPoint"/>
                    </mxGeometry>
                </mxCell>
                <mxCell id="429" value="" style="endArrow=classic;html=1;rounded=0;entryX=0.981;entryY=0.637;entryDx=0;entryDy=0;entryPerimeter=0;" edge="1" parent="1">
                    <mxGeometry width="50" height="50" relative="1" as="geometry">
                        <mxPoint x="-558.3599999999999" y="499.80999999999995" as="sourcePoint"/>
                        <mxPoint x="-660.5" y="499.9200000000001" as="targetPoint"/>
                    </mxGeometry>
                </mxCell>
                <mxCell id="430" value="" style="endArrow=none;html=1;rounded=0;entryX=0.5;entryY=1;entryDx=0;entryDy=0;exitX=0.499;exitY=-0.051;exitDx=0;exitDy=0;exitPerimeter=0;" edge="1" parent="1" source="391" target="390">
                    <mxGeometry width="50" height="50" relative="1" as="geometry">
                        <mxPoint x="-568.5" y="610" as="sourcePoint"/>
                        <mxPoint x="-518.5" y="560" as="targetPoint"/>
                    </mxGeometry>
                </mxCell>
                <mxCell id="431" value="" style="endArrow=none;html=1;rounded=0;entryX=0.5;entryY=1;entryDx=0;entryDy=0;" edge="1" parent="1" target="391">
                    <mxGeometry width="50" height="50" relative="1" as="geometry">
                        <mxPoint x="-558.5" y="640" as="sourcePoint"/>
                        <mxPoint x="-578.5" y="570" as="targetPoint"/>
                    </mxGeometry>
                </mxCell>
                <mxCell id="432" value="" style="endArrow=none;html=1;rounded=0;entryX=0.5;entryY=1;entryDx=0;entryDy=0;" edge="1" parent="1" target="393">
                    <mxGeometry width="50" height="50" relative="1" as="geometry">
                        <mxPoint x="-558.5" y="720" as="sourcePoint"/>
                        <mxPoint x="-578.5" y="660" as="targetPoint"/>
                    </mxGeometry>
                </mxCell>
                <mxCell id="433" value="" style="endArrow=none;html=1;rounded=0;entryX=0.5;entryY=1;entryDx=0;entryDy=0;" edge="1" parent="1" target="394">
                    <mxGeometry width="50" height="50" relative="1" as="geometry">
                        <mxPoint x="-558.5" y="800" as="sourcePoint"/>
                        <mxPoint x="-578.5" y="760" as="targetPoint"/>
                    </mxGeometry>
                </mxCell>
                <mxCell id="434" value="" style="endArrow=classic;html=1;rounded=0;entryX=0.981;entryY=0.637;entryDx=0;entryDy=0;entryPerimeter=0;" edge="1" parent="1">
                    <mxGeometry width="50" height="50" relative="1" as="geometry">
                        <mxPoint x="-558.3599999999999" y="571.72" as="sourcePoint"/>
                        <mxPoint x="-660.5" y="571.8300000000002" as="targetPoint"/>
                    </mxGeometry>
                </mxCell>
                <mxCell id="435" value="" style="endArrow=classic;html=1;rounded=0;entryX=0.981;entryY=0.637;entryDx=0;entryDy=0;entryPerimeter=0;" edge="1" parent="1">
                    <mxGeometry width="50" height="50" relative="1" as="geometry">
                        <mxPoint x="-558.3599999999999" y="639.44" as="sourcePoint"/>
                        <mxPoint x="-660.5" y="639.5500000000002" as="targetPoint"/>
                    </mxGeometry>
                </mxCell>
                <mxCell id="436" value="" style="endArrow=classic;html=1;rounded=0;entryX=0.981;entryY=0.637;entryDx=0;entryDy=0;entryPerimeter=0;" edge="1" parent="1">
                    <mxGeometry width="50" height="50" relative="1" as="geometry">
                        <mxPoint x="-558.3599999999999" y="720" as="sourcePoint"/>
                        <mxPoint x="-660.5" y="720.1100000000001" as="targetPoint"/>
                    </mxGeometry>
                </mxCell>
                <mxCell id="437" value="" style="endArrow=classic;html=1;rounded=0;entryX=0.981;entryY=0.637;entryDx=0;entryDy=0;entryPerimeter=0;" edge="1" parent="1">
                    <mxGeometry width="50" height="50" relative="1" as="geometry">
                        <mxPoint x="-558.3599999999999" y="800" as="sourcePoint"/>
                        <mxPoint x="-660.5" y="800.1100000000001" as="targetPoint"/>
                    </mxGeometry>
                </mxCell>
                <mxCell id="438" value="N" style="text;html=1;align=center;verticalAlign=middle;whiteSpace=wrap;rounded=0;" vertex="1" parent="1">
                    <mxGeometry x="-538.5" y="437.5" width="60" height="30" as="geometry"/>
                </mxCell>
                <mxCell id="439" value="N" style="text;html=1;align=center;verticalAlign=middle;whiteSpace=wrap;rounded=0;" vertex="1" parent="1">
                    <mxGeometry x="-538.5" y="505" width="60" height="30" as="geometry"/>
                </mxCell>
                <mxCell id="440" value="N" style="text;html=1;align=center;verticalAlign=middle;whiteSpace=wrap;rounded=0;" vertex="1" parent="1">
                    <mxGeometry x="-538.5" y="575" width="60" height="30" as="geometry"/>
                </mxCell>
                <mxCell id="441" value="N" style="text;html=1;align=center;verticalAlign=middle;whiteSpace=wrap;rounded=0;" vertex="1" parent="1">
                    <mxGeometry x="-538.5" y="650" width="60" height="30" as="geometry"/>
                </mxCell>
                <mxCell id="442" value="N" style="text;html=1;align=center;verticalAlign=middle;whiteSpace=wrap;rounded=0;" vertex="1" parent="1">
                    <mxGeometry x="-538.5" y="720" width="60" height="30" as="geometry"/>
                </mxCell>
                <mxCell id="443" value="Y" style="text;html=1;align=center;verticalAlign=middle;whiteSpace=wrap;rounded=0;" vertex="1" parent="1">
                    <mxGeometry x="-609.5" y="407.5" width="60" height="30" as="geometry"/>
                </mxCell>
                <mxCell id="444" value="Y" style="text;html=1;align=center;verticalAlign=middle;whiteSpace=wrap;rounded=0;" vertex="1" parent="1">
                    <mxGeometry x="-648.5" y="440" width="60" height="30" as="geometry"/>
                </mxCell>
                <mxCell id="445" value="Y" style="text;html=1;align=center;verticalAlign=middle;whiteSpace=wrap;rounded=0;" vertex="1" parent="1">
                    <mxGeometry x="-609.5" y="475" width="60" height="30" as="geometry"/>
                </mxCell>
                <mxCell id="446" value="Y" style="text;html=1;align=center;verticalAlign=middle;whiteSpace=wrap;rounded=0;" vertex="1" parent="1">
                    <mxGeometry x="-648.5" y="510" width="60" height="30" as="geometry"/>
                </mxCell>
                <mxCell id="447" value="Y" style="text;html=1;align=center;verticalAlign=middle;whiteSpace=wrap;rounded=0;" vertex="1" parent="1">
                    <mxGeometry x="-609.5" y="547.5" width="60" height="30" as="geometry"/>
                </mxCell>
                <mxCell id="448" value="Y" style="text;html=1;align=center;verticalAlign=middle;whiteSpace=wrap;rounded=0;" vertex="1" parent="1">
                    <mxGeometry x="-648.5" y="580" width="60" height="30" as="geometry"/>
                </mxCell>
                <mxCell id="449" value="Y" style="text;html=1;align=center;verticalAlign=middle;whiteSpace=wrap;rounded=0;" vertex="1" parent="1">
                    <mxGeometry x="-609.5" y="617.5" width="60" height="30" as="geometry"/>
                </mxCell>
                <mxCell id="450" value="Y" style="text;html=1;align=center;verticalAlign=middle;whiteSpace=wrap;rounded=0;" vertex="1" parent="1">
                    <mxGeometry x="-648.5" y="655" width="60" height="30" as="geometry"/>
                </mxCell>
                <mxCell id="451" value="Y" style="text;html=1;align=center;verticalAlign=middle;whiteSpace=wrap;rounded=0;" vertex="1" parent="1">
                    <mxGeometry x="-598.5" y="695" width="60" height="30" as="geometry"/>
                </mxCell>
                <mxCell id="452" value="Y" style="text;html=1;align=center;verticalAlign=middle;whiteSpace=wrap;rounded=0;" vertex="1" parent="1">
                    <mxGeometry x="-648.5" y="725" width="60" height="30" as="geometry"/>
                </mxCell>
                <mxCell id="453" value="Y" style="text;html=1;align=center;verticalAlign=middle;whiteSpace=wrap;rounded=0;" vertex="1" parent="1">
                    <mxGeometry x="-598.5" y="775" width="60" height="30" as="geometry"/>
                </mxCell>
                <mxCell id="454" value="" style="endArrow=none;html=1;rounded=0;entryX=0.5;entryY=0;entryDx=0;entryDy=0;" edge="1" parent="1">
                    <mxGeometry width="50" height="50" relative="1" as="geometry">
                        <mxPoint x="-128.5" y="430" as="sourcePoint"/>
                        <mxPoint x="-128.5" y="446.25" as="targetPoint"/>
                        <Array as="points"/>
                    </mxGeometry>
                </mxCell>
                <mxCell id="455" value="" style="endArrow=none;html=1;rounded=0;entryX=0.5;entryY=0;entryDx=0;entryDy=0;" edge="1" parent="1">
                    <mxGeometry width="50" height="50" relative="1" as="geometry">
                        <mxPoint x="-129.5" y="500" as="sourcePoint"/>
                        <mxPoint x="-129.5" y="515" as="targetPoint"/>
                    </mxGeometry>
                </mxCell>
                <mxCell id="456" value="" style="endArrow=none;html=1;rounded=0;entryX=0.547;entryY=0.052;entryDx=0;entryDy=0;entryPerimeter=0;" edge="1" parent="1">
                    <mxGeometry width="50" height="50" relative="1" as="geometry">
                        <mxPoint x="-129.5" y="570" as="sourcePoint"/>
                        <mxPoint x="-129.32999999999993" y="584.6899999999998" as="targetPoint"/>
                    </mxGeometry>
                </mxCell>
                <mxCell id="457" value="" style="endArrow=none;html=1;rounded=0;entryX=0.5;entryY=0;entryDx=0;entryDy=0;" edge="1" parent="1">
                    <mxGeometry width="50" height="50" relative="1" as="geometry">
                        <mxPoint x="-138.5" y="639" as="sourcePoint"/>
                        <mxPoint x="-138.5" y="661" as="targetPoint"/>
                    </mxGeometry>
                </mxCell>
                <mxCell id="458" value="" style="endArrow=none;html=1;rounded=0;entryX=0.5;entryY=0;entryDx=0;entryDy=0;" edge="1" parent="1">
                    <mxGeometry width="50" height="50" relative="1" as="geometry">
                        <mxPoint x="-138.5" y="720" as="sourcePoint"/>
                        <mxPoint x="-138.5" y="733" as="targetPoint"/>
                    </mxGeometry>
                </mxCell>
                <mxCell id="459" value="" style="endArrow=classic;html=1;rounded=0;" edge="1" parent="1">
                    <mxGeometry width="50" height="50" relative="1" as="geometry">
                        <mxPoint x="-128.5" y="430" as="sourcePoint"/>
                        <mxPoint x="-558.5" y="430" as="targetPoint"/>
                    </mxGeometry>
                </mxCell>
                <mxCell id="460" value="" style="endArrow=classic;html=1;rounded=0;" edge="1" parent="1">
                    <mxGeometry width="50" height="50" relative="1" as="geometry">
                        <mxPoint x="-128.5" y="500" as="sourcePoint"/>
                        <mxPoint x="-558.5" y="500" as="targetPoint"/>
                    </mxGeometry>
                </mxCell>
                <mxCell id="461" value="" style="endArrow=classic;html=1;rounded=0;" edge="1" parent="1">
                    <mxGeometry width="50" height="50" relative="1" as="geometry">
                        <mxPoint x="-128.5" y="570" as="sourcePoint"/>
                        <mxPoint x="-558.5" y="570" as="targetPoint"/>
                    </mxGeometry>
                </mxCell>
                <mxCell id="462" value="" style="endArrow=classic;html=1;rounded=0;" edge="1" parent="1">
                    <mxGeometry width="50" height="50" relative="1" as="geometry">
                        <mxPoint x="-138.5" y="640" as="sourcePoint"/>
                        <mxPoint x="-558.5" y="640" as="targetPoint"/>
                    </mxGeometry>
                </mxCell>
                <mxCell id="463" value="" style="endArrow=classic;html=1;rounded=0;" edge="1" parent="1">
                    <mxGeometry width="50" height="50" relative="1" as="geometry">
                        <mxPoint x="-138.5" y="720" as="sourcePoint"/>
                        <mxPoint x="-558.5" y="720.0000000000002" as="targetPoint"/>
                    </mxGeometry>
                </mxCell>
                <mxCell id="464" value="&lt;span style=&quot;font-weight: normal;&quot;&gt;&lt;font style=&quot;font-size: 15px;&quot;&gt;จบการทอนเงิน&lt;/font&gt;&lt;/span&gt;" style="ellipse;whiteSpace=wrap;html=1;fontStyle=1" vertex="1" parent="1">
                    <mxGeometry x="-729.5" y="815" width="119" height="55" as="geometry"/>
                </mxCell>
                <mxCell id="465" value="B500 + 1" style="rounded=0;whiteSpace=wrap;html=1;" vertex="1" parent="1">
                    <mxGeometry x="-158.5" y="376.25" width="80" height="37.5" as="geometry"/>
                </mxCell>
                <mxCell id="466" value="B100 +1" style="rounded=0;whiteSpace=wrap;html=1;" vertex="1" parent="1">
                    <mxGeometry x="-158.5" y="442.5" width="80" height="37.5" as="geometry"/>
                </mxCell>
                <mxCell id="467" value="B50 +1" style="rounded=0;whiteSpace=wrap;html=1;" vertex="1" parent="1">
                    <mxGeometry x="-158.5" y="515" width="80" height="37.5" as="geometry"/>
                </mxCell>
                <mxCell id="468" value="B20 +1" style="rounded=0;whiteSpace=wrap;html=1;" vertex="1" parent="1">
                    <mxGeometry x="-158.5" y="582.5" width="80" height="37.5" as="geometry"/>
                </mxCell>
                <mxCell id="469" value="B10 +1" style="rounded=0;whiteSpace=wrap;html=1;" vertex="1" parent="1">
                    <mxGeometry x="-158.5" y="659.75" width="80" height="37.5" as="geometry"/>
                </mxCell>
                <mxCell id="470" value="B5 + 1" style="rounded=0;whiteSpace=wrap;html=1;" vertex="1" parent="1">
                    <mxGeometry x="-168.5" y="734.25" width="80" height="37.5" as="geometry"/>
                </mxCell>
                <mxCell id="747" style="edgeStyle=none;html=1;exitX=0.5;exitY=1;exitDx=0;exitDy=0;entryX=0.5;entryY=0;entryDx=0;entryDy=0;" edge="1" parent="1" source="478" target="743">
                    <mxGeometry relative="1" as="geometry"/>
                </mxCell>
                <mxCell id="478" value="&lt;font style=&quot;font-size: 15px;&quot;&gt;ทอนเงิน&lt;/font&gt;" style="shape=process;whiteSpace=wrap;html=1;backgroundOutline=1;" vertex="1" parent="1">
                    <mxGeometry x="600" y="313.13" width="120" height="60" as="geometry"/>
                </mxCell>
                <mxCell id="481" value="&lt;font style=&quot;font-size: 15px;&quot;&gt;สิ้นสุด&lt;/font&gt;" style="ellipse;whiteSpace=wrap;html=1;" vertex="1" parent="1">
                    <mxGeometry x="810" y="870" width="120" height="80" as="geometry"/>
                </mxCell>
                <mxCell id="491" style="edgeStyle=none;html=1;exitX=0.5;exitY=1;exitDx=0;exitDy=0;entryX=0.5;entryY=0;entryDx=0;entryDy=0;" edge="1" parent="1" source="482" target="48">
                    <mxGeometry relative="1" as="geometry"/>
                </mxCell>
                <mxCell id="493" style="edgeStyle=none;html=1;exitX=0;exitY=0.5;exitDx=0;exitDy=0;entryX=0;entryY=0.5;entryDx=0;entryDy=0;" edge="1" parent="1" source="482" target="485">
                    <mxGeometry relative="1" as="geometry">
                        <Array as="points">
                            <mxPoint x="690" y="110"/>
                            <mxPoint x="690" y="-125"/>
                        </Array>
                    </mxGeometry>
                </mxCell>
                <mxCell id="482" value="&lt;font style=&quot;font-size: 15px;&quot;&gt;เงินเข้าระบบบหรือไหม&lt;/font&gt;" style="rhombus;whiteSpace=wrap;html=1;" vertex="1" parent="1">
                    <mxGeometry x="765" y="70" width="170" height="80" as="geometry"/>
                </mxCell>
                <mxCell id="486" style="edgeStyle=none;html=1;exitX=0.5;exitY=1;exitDx=0;exitDy=0;entryX=0.5;entryY=0;entryDx=0;entryDy=0;" edge="1" parent="1" source="485" target="qgahOEUiVm1OIHHilqF--140">
                    <mxGeometry relative="1" as="geometry"/>
                </mxCell>
                <mxCell id="485" value="" style="ellipse;whiteSpace=wrap;html=1;aspect=fixed;" vertex="1" parent="1">
                    <mxGeometry x="835" y="-140" width="30" height="30" as="geometry"/>
                </mxCell>
                <mxCell id="492" value="&lt;font style=&quot;font-size: 15px;&quot;&gt;จริง&lt;/font&gt;" style="text;html=1;align=center;verticalAlign=middle;whiteSpace=wrap;rounded=0;" vertex="1" parent="1">
                    <mxGeometry x="835" y="160" width="60" height="40" as="geometry"/>
                </mxCell>
                <mxCell id="494" value="&lt;font style=&quot;font-size: 15px;&quot;&gt;เท็จ&lt;/font&gt;" style="text;html=1;align=center;verticalAlign=middle;whiteSpace=wrap;rounded=0;" vertex="1" parent="1">
                    <mxGeometry x="705" y="85" width="60" height="30" as="geometry"/>
                </mxCell>
                <mxCell id="749" style="edgeStyle=none;html=1;exitX=0.5;exitY=1;exitDx=0;exitDy=0;entryX=0.5;entryY=0;entryDx=0;entryDy=0;" edge="1" parent="1" source="743" target="745">
                    <mxGeometry relative="1" as="geometry"/>
                </mxCell>
                <mxCell id="743" value="&lt;font style=&quot;font-size: 15px;&quot;&gt;แสดง&amp;nbsp;&lt;br&gt;&quot;เงินทอน&quot;&lt;br&gt;&lt;/font&gt;&lt;div&gt;&lt;font style=&quot;font-size: 15px;&quot;&gt;&quot;แบงค์500 = B500&quot;&lt;br&gt;&quot;แบงค์100 = B100&quot;&lt;br&gt;&quot;แบงค์50 = B50&quot;&lt;br&gt;&quot;แบงค์20 = B20&quot;&lt;br&gt;&quot;เหรียญ10 = B10&quot;&lt;br&gt;&quot;เหรียญ5 = B5&quot;&lt;/font&gt;&lt;br&gt;&lt;/div&gt;" style="shape=parallelogram;perimeter=parallelogramPerimeter;whiteSpace=wrap;html=1;fixedSize=1;" vertex="1" parent="1">
                    <mxGeometry x="575" y="427.5" width="170" height="147.5" as="geometry"/>
                </mxCell>
                <mxCell id="750" style="edgeStyle=none;html=1;exitX=0.5;exitY=1;exitDx=0;exitDy=0;entryX=0.5;entryY=0;entryDx=0;entryDy=0;" edge="1" parent="1" source="745" target="746">
                    <mxGeometry relative="1" as="geometry"/>
                </mxCell>
                <mxCell id="745" value="&lt;font style=&quot;font-size: 15px;&quot;&gt;เครื่องจ่ายสินค้า&lt;/font&gt;" style="rounded=0;whiteSpace=wrap;html=1;" vertex="1" parent="1">
                    <mxGeometry x="600" y="613.75" width="120" height="60" as="geometry"/>
                </mxCell>
                <mxCell id="751" style="edgeStyle=none;html=1;exitX=0.5;exitY=1;exitDx=0;exitDy=0;entryX=0;entryY=0.5;entryDx=0;entryDy=0;" edge="1" parent="1" source="746" target="481">
                    <mxGeometry relative="1" as="geometry">
                        <Array as="points">
                            <mxPoint x="660" y="910"/>
                        </Array>
                    </mxGeometry>
                </mxCell>
                <mxCell id="746" value="&lt;font style=&quot;font-size: 15px;&quot;&gt;รับสินค้า&lt;/font&gt;" style="rounded=0;whiteSpace=wrap;html=1;" vertex="1" parent="1">
                    <mxGeometry x="600" y="716.25" width="120" height="60" as="geometry"/>
                </mxCell>
            </root>
        </mxGraphModel>
    </diagram>
</mxfile>